<svg xmlns="http://www.w3.org/2000/svg" xmlns:xlink="http://www.w3.org/1999/xlink" viewBox="0 0 993 993"><defs><style>.cls-1,.cls-10,.cls-11,.cls-13,.cls-14,.cls-15,.cls-16,.cls-17,.cls-18,.cls-19,.cls-20,.cls-3,.cls-4,.cls-5,.cls-6,.cls-7,.cls-8,.cls-9{fill:none;stroke-linecap:round;stroke-miterlimit:10;stroke-width:5px;}.cls-1{stroke:url(#linear-gradient);}.cls-2,.cls-21{fill:#1d004b;}.cls-3{stroke:url(#linear-gradient-2);}.cls-4{stroke:url(#linear-gradient-3);}.cls-5{stroke:url(#linear-gradient-4);}.cls-6{stroke:url(#linear-gradient-5);}.cls-7{stroke:url(#linear-gradient-6);}.cls-8{stroke:url(#linear-gradient-7);}.cls-9{stroke:url(#linear-gradient-8);}.cls-10{stroke:url(#linear-gradient-9);}.cls-11{stroke:url(#linear-gradient-10);}.cls-12,.cls-22{fill:#ff8b00;}.cls-13{stroke:url(#linear-gradient-11);}.cls-14{stroke:url(#linear-gradient-12);}.cls-15{stroke:url(#linear-gradient-13);}.cls-16{stroke:url(#linear-gradient-14);}.cls-17{stroke:url(#linear-gradient-15);}.cls-18{stroke:url(#linear-gradient-16);}.cls-19{stroke:url(#linear-gradient-17);}.cls-20{stroke:url(#linear-gradient-18);}.cls-21{font-size:77.44px;}.cls-21,.cls-22{font-family:Impact;}.cls-22{font-size:20.38px;}</style><linearGradient id="linear-gradient" x1="-15.7" y1="976.24" x2="1008.7" y2="16.76" gradientUnits="userSpaceOnUse"><stop offset="0" stop-color="#fff"/><stop offset="1" stop-color="#fff"/></linearGradient><linearGradient id="linear-gradient-2" x1="300.9" y1="458.23" x2="314.12" y2="445.85" gradientTransform="matrix(1.04, -0.12, 0.11, 0.92, -77.14, 89.99)" xlink:href="#linear-gradient"/><linearGradient id="linear-gradient-3" x1="318.16" y1="442.9" x2="331.38" y2="430.51" gradientTransform="matrix(1.04, -0.12, 0.11, 0.92, -77.14, 89.99)" xlink:href="#linear-gradient"/><linearGradient id="linear-gradient-4" x1="335.42" y1="427.56" x2="348.64" y2="415.18" gradientTransform="matrix(1.04, -0.12, 0.11, 0.92, -77.14, 89.99)" xlink:href="#linear-gradient"/><linearGradient id="linear-gradient-5" x1="352.69" y1="412.22" x2="365.9" y2="399.84" gradientTransform="matrix(1.04, -0.12, 0.11, 0.92, -77.14, 89.99)" xlink:href="#linear-gradient"/><linearGradient id="linear-gradient-6" x1="369.95" y1="396.88" x2="383.17" y2="384.5" gradientTransform="matrix(1.04, -0.12, 0.11, 0.92, -77.14, 89.99)" xlink:href="#linear-gradient"/><linearGradient id="linear-gradient-7" x1="418.34" y1="353.89" x2="431.56" y2="341.51" gradientTransform="matrix(1.04, -0.12, 0.11, 0.92, -77.14, 89.99)" xlink:href="#linear-gradient"/><linearGradient id="linear-gradient-8" x1="387.21" y1="381.54" x2="400.43" y2="369.16" gradientTransform="matrix(1.04, -0.12, 0.11, 0.92, -77.14, 89.99)" xlink:href="#linear-gradient"/><linearGradient id="linear-gradient-9" x1="382.9" y1="385.38" x2="396.11" y2="373" gradientTransform="matrix(1.04, -0.12, 0.11, 0.92, -77.14, 89.99)" xlink:href="#linear-gradient"/><linearGradient id="linear-gradient-10" x1="401.07" y1="369.22" x2="414.29" y2="356.84" gradientTransform="matrix(1.04, -0.12, 0.11, 0.92, -77.14, 89.99)" xlink:href="#linear-gradient"/><linearGradient id="linear-gradient-11" x1="375.59" y1="493.61" x2="388.81" y2="481.23" gradientTransform="matrix(1, 0.32, -0.28, 0.89, 134.4, -101.41)" xlink:href="#linear-gradient"/><linearGradient id="linear-gradient-12" x1="391.77" y1="478.66" x2="404.99" y2="466.28" gradientTransform="matrix(1, 0.32, -0.28, 0.89, 134.4, -101.41)" xlink:href="#linear-gradient"/><linearGradient id="linear-gradient-13" x1="407.96" y1="463.71" x2="421.18" y2="451.33" gradientTransform="matrix(1, 0.32, -0.28, 0.89, 134.4, -101.41)" xlink:href="#linear-gradient"/><linearGradient id="linear-gradient-14" x1="424.14" y1="448.76" x2="437.36" y2="436.37" gradientTransform="matrix(1, 0.32, -0.28, 0.89, 134.4, -101.41)" xlink:href="#linear-gradient"/><linearGradient id="linear-gradient-15" x1="440.32" y1="433.8" x2="453.54" y2="421.42" gradientTransform="matrix(1, 0.32, -0.28, 0.89, 134.4, -101.41)" xlink:href="#linear-gradient"/><linearGradient id="linear-gradient-16" x1="456.51" y1="418.85" x2="469.73" y2="406.47" gradientTransform="matrix(1, 0.32, -0.28, 0.89, 134.4, -101.41)" xlink:href="#linear-gradient"/><linearGradient id="linear-gradient-17" x1="472.69" y1="403.9" x2="485.91" y2="391.52" gradientTransform="matrix(1, 0.32, -0.28, 0.89, 134.4, -101.41)" xlink:href="#linear-gradient"/><linearGradient id="linear-gradient-18" x1="488.88" y1="388.95" x2="502.09" y2="376.56" gradientTransform="matrix(1, 0.32, -0.28, 0.89, 134.4, -101.41)" xlink:href="#linear-gradient"/></defs><g id="Layer_4" data-name="Layer 4"><rect class="cls-1" x="2.5" y="2.5" width="988" height="988"/></g><g id="down_ticket" data-name="down ticket"><path class="cls-2" d="M327.76,393.75c26.49-17.66,2.69-47.52,2.69-47.52l30.16-30.17a10.87,10.87,0,0,1,15.57.25L489.7,437.16a10.85,10.85,0,0,1,1.79,12.27L413.35,605.7,253.54,438.1a10.89,10.89,0,0,1,.2-15.17l30.57-30.56S303.3,410.05,327.76,393.75Z" transform="translate(-4 -4)"/><line class="cls-3" x1="288.02" y1="474.43" x2="297.27" y2="465.16"/><line class="cls-4" x1="304.33" y1="458.12" x2="313.57" y2="448.85"/><line class="cls-5" x1="320.63" y1="441.82" x2="329.87" y2="432.55"/><line class="cls-6" x1="336.93" y1="425.52" x2="346.18" y2="416.24"/><line class="cls-7" x1="353.24" y1="409.21" x2="362.48" y2="399.94"/><line class="cls-8" x1="398.94" y1="363.51" x2="408.18" y2="354.24"/><line class="cls-9" x1="369.54" y1="392.91" x2="378.78" y2="383.64"/><line class="cls-10" x1="365.46" y1="396.99" x2="374.71" y2="387.71"/><line class="cls-11" x1="382.63" y1="379.82" x2="391.88" y2="370.54"/></g><g id="up_ticket" data-name="up ticket"><path class="cls-12" d="M470.42,357.07l43.17-3.6a6.76,6.76,0,0,1,7.13,5.11l24.4,97.59a6.77,6.77,0,0,1-8.21,8.21l-48.39-12.1a6.78,6.78,0,0,0-8,4.21L417.94,624.71a.45.45,0,0,1-.86-.05l-55.26-225a6.78,6.78,0,0,1,4.26-8l39.12-14.22S409.28,406,441.89,406,470.42,357.07,470.42,357.07Z" transform="translate(-4 -4)"/><line class="cls-13" x1="373.87" y1="454.21" x2="386.11" y2="449.56"/><line class="cls-14" x1="394.25" y1="446.06" x2="406.49" y2="441.41"/><line class="cls-15" x1="414.63" y1="437.91" x2="426.87" y2="433.26"/><line class="cls-16" x1="435.01" y1="429.76" x2="447.25" y2="425.11"/><line class="cls-17" x1="455.39" y1="421.61" x2="467.63" y2="416.96"/><line class="cls-18" x1="475.76" y1="413.45" x2="488.01" y2="408.8"/><line class="cls-19" x1="496.14" y1="405.3" x2="508.38" y2="400.65"/><line class="cls-20" x1="516.52" y1="397.15" x2="528.76" y2="392.5"/></g><g id="logo_text" data-name="logo text"><text class="cls-21" transform="translate(486.72 558.11)">OUTINZ</text><text class="cls-22" transform="translate(493.72 582.63)">outinz.com</text></g></svg>